<?xml version="1.0" encoding="UTF-8" standalone="no"?>
<!-- Generator: Adobe Illustrator 16.0.4, SVG Export Plug-In . SVG Version: 6.00 Build 0)  -->

<svg
   xmlns:dc="http://purl.org/dc/elements/1.1/"
   xmlns:cc="http://creativecommons.org/ns#"
   xmlns:rdf="http://www.w3.org/1999/02/22-rdf-syntax-ns#"
   xmlns:svg="http://www.w3.org/2000/svg"
   xmlns="http://www.w3.org/2000/svg"
   xmlns:sodipodi="http://sodipodi.sourceforge.net/DTD/sodipodi-0.dtd"
   xmlns:inkscape="http://www.inkscape.org/namespaces/inkscape"
   version="1.1"
   id="Layer_1"
   x="0px"
   y="0px"
   width="367.931px"
   height="413.25px"
   viewBox="0 0 367.931 413.25"
   enable-background="new 0 0 367.931 413.25"
   xml:space="preserve"
   inkscape:version="0.48.3.1 r9886"
   sodipodi:docname="c.svg"><metadata
   id="metadata23"><rdf:RDF><cc:Work
       rdf:about=""><dc:format>image/svg+xml</dc:format><dc:type
         rdf:resource="http://purl.org/dc/dcmitype/StillImage" /></cc:Work></rdf:RDF></metadata><defs
   id="defs21" /><sodipodi:namedview
   pagecolor="#ffffff"
   bordercolor="#666666"
   borderopacity="1"
   objecttolerance="10"
   gridtolerance="10"
   guidetolerance="10"
   inkscape:pageopacity="0"
   inkscape:pageshadow="2"
   inkscape:window-width="640"
   inkscape:window-height="480"
   id="namedview19"
   showgrid="false"
   inkscape:zoom="0.57108288"
   inkscape:cx="183.9655"
   inkscape:cy="206.625"
   inkscape:window-x="65"
   inkscape:window-y="24"
   inkscape:window-maximized="0"
   inkscape:current-layer="Layer_1" />



<path
   fill-rule="evenodd"
   clip-rule="evenodd"
   fill="#FFFFF"
   d="M290.159,144.568c-0.949,0.854-1.785,1.906-2.867,2.534  c-15.589,9.057-31.195,18.081-46.85,27.025c-1.329,0.759-3.02,0.886-4.543,1.307c-0.642-1.312-1.091-2.769-1.953-3.914  c-14.764-19.604-34.326-28.722-58.743-25.177c-43.424,6.303-65.885,53.767-43.54,91.233c2.213,3.093,4.197,6.383,6.674,9.246  c26.667,30.824,78.585,25.996,97.779-9.033c1.215,0.191,2.617,0.053,3.614,0.623c16.171,9.246,32.296,18.57,48.4,27.931  c0.769,0.446,1.249,1.389,1.864,2.101c-15.379,24.884-36.49,42.91-64.075,52.944c-54.415,19.793-114.45-0.776-145.77-49.774  c-0.711-1.112-1.449-2.206-2.174-3.309c-11.155-19.64-17.133-40.754-16.723-63.337c1.14-62.783,47.697-112.277,105.39-119.399  c51.882-6.404,92.605,13.109,121.742,56.599C288.937,142.994,289.565,143.769,290.159,144.568z"
   id="path9"
   style="fill:#000000;fill-opacity:1" />


<path
   fill-rule="evenodd"
   clip-rule="evenodd"
   fill="FFFFF"
   d="M279.241,213.462c-4.801,0-8.894,0-13.25,0  c0-4.764,0-9.147,0-13.918c4.23,0,8.328,0,12.938,0c0-4.585,0-8.812,0-13.327c4.772,0,9.027,0,13.778,0c0,4.231,0,8.46,0,13.052  c4.736,0,8.999,0,13.638,0c0,4.743,0,9.127,0,13.903c-4.166,0-8.424,0-13.182,0c0,4.595,0,8.824,0,13.436c-4.854,0-9.218,0-13.922,0  C279.241,222.381,279.241,218.275,279.241,213.462z"
   id="path15"
   style="fill:#000000;fill-opacity:1" />
<path
   fill-rule="evenodd"
   clip-rule="evenodd"
   fill="#FFFFF"
   d="M343.917,199.365c4.826,0,8.956,0,13.444,0  c0,4.671,0,9.062,0,13.94c-4.212,0-8.46,0-13.23,0c0,4.701,0,8.946,0,13.432c-4.802,0-9.074,0-13.888,0c0-4.307,0-8.532,0-13.132  c-4.619,0-8.724,0-13.171,0c0-4.766,0-9.153,0-14.102c4.136,0,8.37,0,12.914,0c0-4.658,0-8.779,0-13.24c4.735,0,9.144,0,13.931,0  C343.917,190.486,343.917,194.593,343.917,199.365z"
   id="path17"
   style="fill:#000000;fill-opacity:1" />
</svg>