<?xml version="1.0" standalone="no"?>
<!DOCTYPE svg PUBLIC "-//W3C//DTD SVG 20010904//EN"
 "http://www.w3.org/TR/2001/REC-SVG-20010904/DTD/svg10.dtd">
<svg version="1.0" xmlns="http://www.w3.org/2000/svg"
 width="253.000000pt" height="226.000000pt" viewBox="0 0 253.000000 226.000000"
 preserveAspectRatio="xMidYMid meet">
<metadata>
Created by potrace 1.11, written by Peter Selinger 2001-2013
</metadata>
<g transform="translate(0.000000,226.000000) scale(0.100000,-0.100000)"
fill="#000000" stroke="none">
<path d="M550 2143 c0 -5 -16 -81 -34 -170 l-33 -163 692 0 c380 0 694 -2 697
-5 2 -3 -4 -52 -16 -110 l-20 -105 -698 0 -698 0 -4 -22 c-3 -13 -17 -84 -31
-158 -15 -74 -29 -143 -31 -152 -5 -17 33 -18 690 -18 574 0 696 -2 696 -13 0
-8 -16 -93 -35 -190 -19 -97 -35 -178 -35 -181 0 -5 -552 -186 -567 -186 -10
0 -474 178 -481 184 -2 3 3 36 12 75 9 38 16 75 16 80 0 7 -57 11 -169 11
-153 0 -170 -2 -175 -17 -20 -70 -76 -387 -69 -393 7 -6 519 -204 723 -279
l75 -28 459 152 c253 83 463 158 468 166 4 8 73 347 154 754 80 407 147 748
150 758 5 16 -41 17 -865 17 -479 0 -871 -3 -871 -7z"/>
</g>
</svg>
