<?xml version="1.0" standalone="no"?>
<!DOCTYPE svg PUBLIC "-//W3C//DTD SVG 20010904//EN"
 "http://www.w3.org/TR/2001/REC-SVG-20010904/DTD/svg10.dtd">
<svg version="1.0" xmlns="http://www.w3.org/2000/svg"
 width="512.000000pt" height="512.000000pt" viewBox="0 0 512.000000 512.000000"
 preserveAspectRatio="xMidYMid meet">
<metadata>
Created by potrace 1.11, written by Peter Selinger 2001-2013
</metadata>
<g transform="translate(0.000000,512.000000) scale(0.100000,-0.100000)"
fill="#000000" stroke="none">
<path d="M304 5088 c3 -18 96 -1054 207 -2303 111 -1249 202 -2271 203 -2272
0 0 416 -116 922 -257 l921 -256 844 234 c464 129 880 244 924 256 l81 22 202
2276 c112 1253 205 2289 208 2305 l6 27 -2262 0 -2261 0 5 -32z m4096 -370 c0
-31 -340 -3868 -345 -3893 -4 -20 -75 -41 -1205 -352 -107 -30 -215 -60 -240
-67 -45 -13 -53 -11 -790 193 -649 180 -745 209 -748 226 -1 11 -78 880 -172
1930 -93 1051 -171 1927 -174 1948 l-4 37 1839 0 1839 0 0 -22z"/>
<path d="M1144 4153 c3 -16 38 -400 78 -855 l73 -828 977 0 978 0 0 -23 c0
-59 -62 -703 -68 -708 -8 -7 -605 -169 -624 -169 -13 0 -620 161 -627 166 -3
3 -40 391 -41 432 l0 22 -285 0 c-157 0 -285 -1 -285 -2 0 -52 82 -883 87
-888 4 -3 265 -77 579 -164 l571 -158 577 160 c318 88 579 162 581 164 1 1 35
368 74 813 40 446 75 834 78 863 l6 52 -1026 0 c-564 0 -1028 4 -1031 8 -2 4
-14 113 -25 242 -12 129 -24 256 -27 283 l-6 47 1081 0 1081 0 4 23 c5 26 46
491 46 525 l0 22 -1416 0 -1416 0 6 -27z"/>
</g>
</svg>
