<?xml version="1.0" standalone="no"?>
<!DOCTYPE svg PUBLIC "-//W3C//DTD SVG 20010904//EN"
 "http://www.w3.org/TR/2001/REC-SVG-20010904/DTD/svg10.dtd">
<svg version="1.0" xmlns="http://www.w3.org/2000/svg"
 width="480.000000pt" height="480.000000pt" viewBox="0 0 480.000000 480.000000"
 preserveAspectRatio="xMidYMid meet">
<metadata>
Created by potrace 1.11, written by Peter Selinger 2001-2013
</metadata>
<g transform="translate(0.000000,480.000000) scale(0.100000,-0.100000)"
fill="#000000" stroke="none">
<path d="M2800 4453 c-79 -206 -261 -448 -650 -863 -257 -274 -342 -385 -382
-498 -40 -114 -9 -227 103 -378 107 -144 381 -434 409 -434 31 0 -6 82 -126
282 -116 192 -154 296 -154 419 0 171 73 285 309 482 291 243 474 506 536 767
15 68 22 340 7 340 -4 0 -28 -53 -52 -117z"/>
<path d="M3053 3674 c-190 -49 -382 -149 -502 -261 -134 -124 -197 -245 -207
-398 -9 -122 13 -204 97 -375 112 -226 133 -304 104 -377 -13 -33 -14 -46 -5
-63 10 -20 18 -22 61 -18 95 9 161 95 181 235 16 112 -4 201 -81 357 -74 147
-95 225 -89 321 9 138 93 241 343 423 77 56 156 115 175 131 54 46 31 54 -77
25z"/>
<path d="M1505 2255 c-164 -44 -425 -191 -425 -240 0 -33 113 -79 325 -132
107 -26 118 -27 380 -27 447 1 980 48 1204 105 91 23 105 34 65 51 -36 15
-601 17 -1139 4 -377 -9 -445 -4 -445 30 0 9 36 50 80 91 54 51 80 83 80 98 0
38 -38 44 -125 20z"/>
<path d="M3482 2253 c-47 -6 -35 -24 31 -44 118 -35 162 -84 162 -184 0 -108
-56 -213 -205 -385 -81 -93 -117 -151 -105 -170 31 -49 248 91 422 273 128
133 148 200 94 314 -58 122 -165 194 -294 199 -40 1 -87 0 -105 -3z"/>
<path d="M1423 1684 c-12 -32 17 -92 65 -136 117 -105 227 -137 492 -145 461
-14 1044 80 1028 165 -8 40 -70 45 -593 47 -546 2 -673 11 -834 60 -98 29
-149 32 -158 9z"/>
<path d="M1660 1189 c-124 -19 -150 -54 -86 -114 106 -100 366 -155 729 -155
270 0 459 29 577 88 54 26 83 62 73 88 -10 26 -152 55 -393 80 -186 18 -804
28 -900 13z"/>
<path d="M1125 971 c-94 -28 -273 -107 -342 -150 -151 -96 -114 -155 137 -215
198 -48 635 -99 940 -112 571 -23 1446 97 1720 236 75 38 102 69 98 111 -4 46
-24 47 -89 3 -65 -44 -126 -66 -256 -93 -359 -74 -1131 -124 -1576 -102 -288
15 -597 62 -656 100 -28 18 -2 57 74 116 76 58 95 80 95 109 0 22 -66 20 -145
-3z"/>
<path d="M3645 570 c-49 -10 -134 -30 -188 -44 -240 -62 -816 -116 -1252 -116
-273 0 -580 -26 -629 -52 -20 -11 -20 -12 11 -24 66 -28 218 -38 528 -38 427
1 843 29 1200 79 205 30 291 53 410 109 91 43 132 76 120 95 -9 16 -98 12
-200 -9z"/>
</g>
</svg>
